#!OML:ASF E:\emotionWalksFemale\Project 1\Capture day 1\Session 1\Female1.ASF
:FULLY-SPECIFIED
:DEGREES
397
root 7.06479 15.1492 40.5185 177.801 3.84128 -179.397
lowerback 7.05549 0.857288 1.25145
upperback -5.13256 1.4428 0.170783
thorax -9.38526 0.681164 -0.747398
lowerneck -3.41928 -2.11913 -5.1763
upperneck 5.26565 -2.80042 5.65896
head 2.46982 -1.31486 2.6695
rclavicle 3.16502e-015 -2.48481e-016
rhumerus -43.7901 7.02442 -89.1329
rradius 31.1815
rwrist 21.2311
rhand -1.01353 -48.4327
rfingers 7.12502
rthumb 24.6192 -76.8694
lclavicle 3.16502e-015 -2.48481e-016
lhumerus -48.6594 -7.27482 92.6231
lradius 38.6531
lwrist -17.7604
lhand -5.7522 -33.8594
lfingers 7.12502
lthumb 20.0705 -4.8761
rfemur -25.0036 26.9906 14.9507
rtibia 21.7027
rfoot -24.0847 -36.4562
rtoes -0.766678
lfemur 8.34287 -18.4122 -33.744
ltibia 13.6366
lfoot -20.88 23.1747
ltoes -21.2953
398
root 7.07512 15.1564 40.4788 177.644 3.594 -179.369
lowerback 7.18725 0.801656 1.27445
upperback -5.05939 1.36281 0.149044
thorax -9.38358 0.637194 -0.772752
lowerneck -4.26507 -1.98054 -5.98466
upperneck 5.94522 -2.59097 6.49455
head 2.8859 -1.18559 3.12582
rclavicle 1.53219e-014 8.74653e-015
rhumerus -43.7198 7.15503 -89.2676
rradius 31.1286
rwrist 21.0349
rhand -1.08176 -48.9637
rfingers 7.12502
rthumb 24.5538 -77.4092
lclavicle 1.53219e-014 8.74653e-015
lhumerus -48.1888 -7.36496 92.6094
lradius 38.2656
lwrist -17.6544
lhand -5.99522 -33.864
lfingers 7.12502
lthumb 19.8369 -4.8563
rfemur -24.8463 27.6707 14.7781
rtibia 21.5091
rfoot -25.0068 -37.2226
rtoes -1.59597
lfemur 8.76229 -18.2329 -33.7
ltibia 13.4077
lfoot -20.6567 22.968
ltoes -21.4308
399
root 7.07938 15.1548 40.4436 177.483 3.85381 -179.423
lowerback 7.42013 0.880678 1.29855
upperback -5.01978 1.46626 0.1181
thorax -9.47465 0.681007 -0.838974
lowerneck -4.31288 -1.88808 -6.1964
upperneck 5.90449 -2.46646 6.80643
head 2.88546 -1.11721 3.28063
rclavicle 6.00081e-015 1.27968e-015
rhumerus -43.7318 7.18934 -89.3245
rradius 31.1438
rwrist 20.9294
rhand -1.75578 -48.5823
rfingers 7.12502
rthumb 23.9076 -77.1141
lclavicle 6.00081e-015 1.27968e-015
lhumerus -47.9277 -7.54402 92.4908
lradius 38.1032
lwrist -17.4415
lhand -5.2926 -33.9004
lfingers 7.12502
lthumb 20.5123 -4.96399
rfemur -25.0833 28.5864 14.3424
rtibia 21.2821
rfoot -27.2944 -36.6412
rtoes 7.32886
lfemur 9.10046 -17.8417 -33.8022
ltibia 13.2472
lfoot -20.577 22.9177
ltoes -20.7696
400
root 7.07954 15.1501 40.4058 177.638 3.70664 -179.427
lowerback 7.31791 0.821474 1.28478
upperback -5.02816 1.39153 0.181904
thorax -9.42681 0.64975 -0.750041
lowerneck -4.49943 -1.86489 -6.13579
upperneck 5.90746 -2.42446 6.62122
head 2.91238 -1.1006 3.20593
rclavicle -7.16867e-015 -3.62782e-015
rhumerus -43.6554 7.15918 -89.1569
rradius 31.1619
rwrist 21.0194
rhand -2.42346 -48.2468
rfingers 7.12502
rthumb 23.2672 -76.861
lclavicle -7.16867e-015 -3.62782e-015
lhumerus -47.8936 -7.60606 92.4882
lradius 38.1123
lwrist -17.326
lhand -4.89416 -34.3618
lfingers 7.12502
lthumb 20.8951 -5.46715
rfemur -25.5704 29.1134 13.7958
rtibia 21.0298
rfoot -24.6977 -38.687
rtoes -0.125648
lfemur 9.09578 -17.7222 -33.7493
ltibia 13.1633
lfoot -20.4946 22.6735
ltoes -21.3637
401
root 7.08867 15.1343 40.3639 177.792 3.66093 -179.519
lowerback 7.12312 0.842451 1.17869
upperback -5.03971 1.40312 0.130083
thorax -9.32461 0.662609 -0.743572
lowerneck -4.45434 -1.96372 -5.66624
upperneck 5.79322 -2.56286 6.14365
head 2.85078 -1.17691 2.94222
rclavicle -3.3079e-015 2.08724e-015
rhumerus -43.6178 6.85829 -89.0718
rradius 31.2314
rwrist 21.433
rhand -1.97769 -48.8235
rfingers 7.12502
rthumb 23.6948 -77.383
lclavicle -3.3079e-015 2.08724e-015
lhumerus -48.0422 -7.83394 92.4853
lradius 38.3253
lwrist -17.4878
lhand -5.1974 -34.9444
lfingers 7.12502
lthumb 20.6037 -6.01785
rfemur -25.8313 29.0134 13.53
rtibia 20.7707
rfoot -18.7268 -40.2371
rtoes -13.0878
lfemur 9.13363 -17.616 -33.803
ltibia 13.0876
lfoot -20.6174 22.516
ltoes -21.9112
402
root 7.09789 15.1138 40.3237 177.624 3.73447 -179.703
lowerback 7.25941 0.941399 0.982287
upperback -4.97773 1.5018 0.0548545
thorax -9.33785 0.717415 -0.729817
lowerneck -3.69357 -2.17659 -4.81787
upperneck 5.04125 -2.8729 5.36535
head 2.43338 -1.35264 2.49773
rclavicle 4.32046e-015 5.8393e-016
rhumerus -43.6236 6.53866 -88.9505
rradius 31.3583
rwrist 21.8104
rhand -0.844836 -49.3401
rfingers 7.12502
rthumb 24.7809 -77.7547
lclavicle 4.32046e-015 5.8393e-016
lhumerus -48.3084 -7.99385 92.5388
lradius 38.7674
lwrist -17.3777
lhand -3.16732 -33.8895
lfingers 7.12502
lthumb 22.5534 -5.18682
rfemur -25.7739 28.7319 13.4719
rtibia 20.6724
rfoot -24.4537 -38.5109
rtoes 1.90189
lfemur 9.61604 -17.4606 -34.0964
ltibia 12.8339
lfoot -20.6847 22.5149
ltoes -21.7981
403
root 7.10634 15.116 40.2811 177.404 3.57432 -179.717
lowerback 7.3137 0.942546 0.848684
upperback -4.81218 1.48146 0.124162
thorax -9.19387 0.715485 -0.576302
lowerneck -3.68765 -2.18939 -5.05348
upperneck 4.89691 -2.88436 5.55614
head 2.39574 -1.35911 2.60484
rclavicle 6.64065e-015 1.39149e-015
rhumerus -43.3852 6.55503 -88.7892
rradius 31.2326
rwrist 21.7794
rhand -0.722248 -49.6442
rfingers 7.12502
rthumb 24.8984 -78.0425
lclavicle 6.64065e-015 1.39149e-015
lhumerus -48.1852 -8.07399 92.7736
lradius 38.6309
lwrist -17.8159
lhand -1.2648 -32.3618
lfingers 7.12502
lthumb 24.3784 -3.89248
rfemur -25.5954 28.6104 13.5974
rtibia 20.7369
rfoot -23.0045 -39.2511
rtoes -1.6019
lfemur 10.2382 -17.29 -34.154
ltibia 12.4212
lfoot -20.558 22.2948
ltoes -22.2798
